<?xml version="1.0" standalone="no"?>
<!DOCTYPE svg PUBLIC "-//W3C//DTD SVG 20010904//EN"
 "http://www.w3.org/TR/2001/REC-SVG-20010904/DTD/svg10.dtd">
<svg version="1.0" xmlns="http://www.w3.org/2000/svg"
 width="260.000000pt" height="260.000000pt" viewBox="0 0 260.000000 260.000000"
 preserveAspectRatio="xMidYMid meet">
<metadata>
Created by potrace 1.11, written by Peter Selinger 2001-2013
</metadata>
<g transform="translate(0.000000,260.000000) scale(0.100000,-0.100000)"
fill="#000000" stroke="none">
<path d="M0 1300 l0 -1300 1300 0 1300 0 0 1300 0 1300 -1300 0 -1300 0 0
-1300z m2402 581 c57 -28 111 -79 140 -134 31 -58 32 -175 1 -232 -29 -54 -86
-109 -142 -137 -66 -32 -196 -32 -262 0 -197 97 -225 345 -54 471 90 65 219
78 317 32z m-1950 -650 c57 -28 111 -79 140 -134 31 -58 32 -175 1 -232 -29
-54 -86 -109 -142 -137 -66 -32 -196 -32 -262 0 -197 97 -225 345 -54 471 90
65 219 78 317 32z m1300 0 c57 -28 111 -79 140 -134 31 -58 32 -175 1 -232
-29 -54 -86 -109 -142 -137 -66 -32 -196 -32 -262 0 -197 97 -225 345 -54 471
90 65 219 78 317 32z m-640 -640 c57 -28 111 -79 140 -134 31 -58 32 -175 1
-232 -29 -54 -86 -109 -142 -137 -66 -32 -196 -32 -262 0 -197 97 -225 345
-54 471 90 65 219 78 317 32z"/>
</g>
</svg>
